<mxfile host="app.diagrams.net" modified="2023-07-21T15:18:26.010Z" agent="Mozilla/5.0 (Windows NT 10.0; Win64; x64) AppleWebKit/537.36 (KHTML, like Gecko) Chrome/114.0.0.0 Safari/537.36" etag="A9Ahr08ytzABAwyoz9tk" version="21.6.5" type="device">
  <diagram id="C5RBs43oDa-KdzZeNtuy" name="Page-1">
    <mxGraphModel dx="902" dy="518" grid="1" gridSize="10" guides="1" tooltips="1" connect="1" arrows="1" fold="1" page="1" pageScale="1" pageWidth="827" pageHeight="1169" math="0" shadow="0">
      <root>
        <mxCell id="WIyWlLk6GJQsqaUBKTNV-0" />
        <mxCell id="WIyWlLk6GJQsqaUBKTNV-1" parent="WIyWlLk6GJQsqaUBKTNV-0" />
        <mxCell id="WIyWlLk6GJQsqaUBKTNV-2" value="" style="rounded=0;html=1;jettySize=auto;orthogonalLoop=1;fontSize=11;endArrow=block;endFill=0;endSize=8;strokeWidth=1;shadow=0;labelBackgroundColor=none;edgeStyle=orthogonalEdgeStyle;" parent="WIyWlLk6GJQsqaUBKTNV-1" source="WIyWlLk6GJQsqaUBKTNV-3" target="WIyWlLk6GJQsqaUBKTNV-6" edge="1">
          <mxGeometry relative="1" as="geometry" />
        </mxCell>
        <mxCell id="WIyWlLk6GJQsqaUBKTNV-3" value="Option 1" style="rounded=1;whiteSpace=wrap;html=1;fontSize=12;glass=0;strokeWidth=1;shadow=0;" parent="WIyWlLk6GJQsqaUBKTNV-1" vertex="1">
          <mxGeometry x="150" y="50" width="130" height="40" as="geometry" />
        </mxCell>
        <mxCell id="WIyWlLk6GJQsqaUBKTNV-4" value="Yes" style="rounded=0;html=1;jettySize=auto;orthogonalLoop=1;fontSize=11;endArrow=block;endFill=0;endSize=8;strokeWidth=1;shadow=0;labelBackgroundColor=none;edgeStyle=orthogonalEdgeStyle;" parent="WIyWlLk6GJQsqaUBKTNV-1" source="WIyWlLk6GJQsqaUBKTNV-6" target="WIyWlLk6GJQsqaUBKTNV-10" edge="1">
          <mxGeometry y="20" relative="1" as="geometry">
            <mxPoint as="offset" />
          </mxGeometry>
        </mxCell>
        <mxCell id="WIyWlLk6GJQsqaUBKTNV-5" value="No" style="edgeStyle=orthogonalEdgeStyle;rounded=0;html=1;jettySize=auto;orthogonalLoop=1;fontSize=11;endArrow=block;endFill=0;endSize=8;strokeWidth=1;shadow=0;labelBackgroundColor=none;" parent="WIyWlLk6GJQsqaUBKTNV-1" source="WIyWlLk6GJQsqaUBKTNV-6" target="WIyWlLk6GJQsqaUBKTNV-7" edge="1">
          <mxGeometry y="10" relative="1" as="geometry">
            <mxPoint as="offset" />
          </mxGeometry>
        </mxCell>
        <mxCell id="WIyWlLk6GJQsqaUBKTNV-6" value="&lt;font style=&quot;font-size: 11px;&quot;&gt;Account Number&lt;/font&gt;" style="rhombus;whiteSpace=wrap;html=1;shadow=0;fontFamily=Helvetica;fontSize=12;align=center;strokeWidth=1;spacing=6;spacingTop=-4;" parent="WIyWlLk6GJQsqaUBKTNV-1" vertex="1">
          <mxGeometry x="135" y="140" width="160" height="100" as="geometry" />
        </mxCell>
        <mxCell id="WIyWlLk6GJQsqaUBKTNV-7" value="Insert account number, name and initial balance of $ 0" style="rounded=1;whiteSpace=wrap;html=1;fontSize=12;glass=0;strokeWidth=1;shadow=0;" parent="WIyWlLk6GJQsqaUBKTNV-1" vertex="1">
          <mxGeometry x="350" y="160" width="160" height="60" as="geometry" />
        </mxCell>
        <mxCell id="WIyWlLk6GJQsqaUBKTNV-8" value="No" style="rounded=0;html=1;jettySize=auto;orthogonalLoop=1;fontSize=11;endArrow=block;endFill=0;endSize=8;strokeWidth=1;shadow=0;labelBackgroundColor=none;edgeStyle=orthogonalEdgeStyle;" parent="WIyWlLk6GJQsqaUBKTNV-1" source="WIyWlLk6GJQsqaUBKTNV-10" target="WIyWlLk6GJQsqaUBKTNV-11" edge="1">
          <mxGeometry x="0.3333" y="20" relative="1" as="geometry">
            <mxPoint as="offset" />
          </mxGeometry>
        </mxCell>
        <mxCell id="WIyWlLk6GJQsqaUBKTNV-10" value="Choose different A/C number" style="rhombus;whiteSpace=wrap;html=1;shadow=0;fontFamily=Helvetica;fontSize=12;align=center;strokeWidth=1;spacing=6;spacingTop=-4;" parent="WIyWlLk6GJQsqaUBKTNV-1" vertex="1">
          <mxGeometry x="135" y="290" width="160" height="110" as="geometry" />
        </mxCell>
        <mxCell id="WIyWlLk6GJQsqaUBKTNV-11" value="Option 2" style="rounded=1;whiteSpace=wrap;html=1;fontSize=12;glass=0;strokeWidth=1;shadow=0;" parent="WIyWlLk6GJQsqaUBKTNV-1" vertex="1">
          <mxGeometry x="150" y="430" width="130" height="40" as="geometry" />
        </mxCell>
        <mxCell id="likq4GKeBWNw_tnaNfB7-2" value="" style="rounded=0;html=1;jettySize=auto;orthogonalLoop=1;fontSize=11;endArrow=block;endFill=0;endSize=8;strokeWidth=1;shadow=0;labelBackgroundColor=none;edgeStyle=orthogonalEdgeStyle;exitX=0;exitY=0.5;exitDx=0;exitDy=0;entryX=0;entryY=0.5;entryDx=0;entryDy=0;" parent="WIyWlLk6GJQsqaUBKTNV-1" source="likq4GKeBWNw_tnaNfB7-6" target="WIyWlLk6GJQsqaUBKTNV-6" edge="1">
          <mxGeometry relative="1" as="geometry">
            <mxPoint x="90" y="300" as="sourcePoint" />
            <mxPoint x="100" y="180" as="targetPoint" />
          </mxGeometry>
        </mxCell>
        <mxCell id="likq4GKeBWNw_tnaNfB7-7" value="" style="rounded=0;html=1;jettySize=auto;orthogonalLoop=1;fontSize=11;endArrow=block;endFill=0;endSize=8;strokeWidth=1;shadow=0;labelBackgroundColor=none;edgeStyle=orthogonalEdgeStyle;exitX=0;exitY=0.5;exitDx=0;exitDy=0;entryX=0;entryY=0.5;entryDx=0;entryDy=0;" parent="WIyWlLk6GJQsqaUBKTNV-1" source="WIyWlLk6GJQsqaUBKTNV-10" target="likq4GKeBWNw_tnaNfB7-6" edge="1">
          <mxGeometry relative="1" as="geometry">
            <mxPoint x="135" y="345" as="sourcePoint" />
            <mxPoint x="135" y="190" as="targetPoint" />
          </mxGeometry>
        </mxCell>
        <mxCell id="likq4GKeBWNw_tnaNfB7-6" value="Repeat" style="rhombus;whiteSpace=wrap;html=1;" parent="WIyWlLk6GJQsqaUBKTNV-1" vertex="1">
          <mxGeometry x="70" y="230" width="90" height="80" as="geometry" />
        </mxCell>
        <mxCell id="likq4GKeBWNw_tnaNfB7-19" value="Yes" style="rounded=0;html=1;jettySize=auto;orthogonalLoop=1;fontSize=11;endArrow=block;endFill=0;endSize=8;strokeWidth=1;shadow=0;labelBackgroundColor=none;edgeStyle=orthogonalEdgeStyle;" parent="WIyWlLk6GJQsqaUBKTNV-1" source="likq4GKeBWNw_tnaNfB7-21" target="likq4GKeBWNw_tnaNfB7-23" edge="1">
          <mxGeometry y="20" relative="1" as="geometry">
            <mxPoint as="offset" />
          </mxGeometry>
        </mxCell>
        <mxCell id="likq4GKeBWNw_tnaNfB7-20" value="No" style="edgeStyle=orthogonalEdgeStyle;rounded=0;html=1;jettySize=auto;orthogonalLoop=1;fontSize=11;endArrow=block;endFill=0;endSize=8;strokeWidth=1;shadow=0;labelBackgroundColor=none;" parent="WIyWlLk6GJQsqaUBKTNV-1" source="likq4GKeBWNw_tnaNfB7-21" target="likq4GKeBWNw_tnaNfB7-22" edge="1">
          <mxGeometry y="10" relative="1" as="geometry">
            <mxPoint as="offset" />
          </mxGeometry>
        </mxCell>
        <mxCell id="likq4GKeBWNw_tnaNfB7-21" value="&lt;font style=&quot;font-size: 11px;&quot;&gt;Deposit&lt;/font&gt;" style="rhombus;whiteSpace=wrap;html=1;shadow=0;fontFamily=Helvetica;fontSize=12;align=center;strokeWidth=1;spacing=6;spacingTop=-4;" parent="WIyWlLk6GJQsqaUBKTNV-1" vertex="1">
          <mxGeometry x="135" y="520" width="160" height="100" as="geometry" />
        </mxCell>
        <mxCell id="likq4GKeBWNw_tnaNfB7-22" value="print statement that account number is invalid" style="rounded=1;whiteSpace=wrap;html=1;fontSize=12;glass=0;strokeWidth=1;shadow=0;" parent="WIyWlLk6GJQsqaUBKTNV-1" vertex="1">
          <mxGeometry x="360" y="540" width="160" height="60" as="geometry" />
        </mxCell>
        <mxCell id="likq4GKeBWNw_tnaNfB7-23" value="Updates the balance" style="rhombus;whiteSpace=wrap;html=1;shadow=0;fontFamily=Helvetica;fontSize=12;align=center;strokeWidth=1;spacing=6;spacingTop=-4;" parent="WIyWlLk6GJQsqaUBKTNV-1" vertex="1">
          <mxGeometry x="135" y="660" width="160" height="110" as="geometry" />
        </mxCell>
        <mxCell id="likq4GKeBWNw_tnaNfB7-25" value="" style="rounded=0;html=1;jettySize=auto;orthogonalLoop=1;fontSize=11;endArrow=block;endFill=0;endSize=8;strokeWidth=1;shadow=0;labelBackgroundColor=none;edgeStyle=orthogonalEdgeStyle;exitX=0;exitY=0.5;exitDx=0;exitDy=0;entryX=0.004;entryY=0.461;entryDx=0;entryDy=0;entryPerimeter=0;" parent="WIyWlLk6GJQsqaUBKTNV-1" source="likq4GKeBWNw_tnaNfB7-23" target="likq4GKeBWNw_tnaNfB7-21" edge="1">
          <mxGeometry relative="1" as="geometry">
            <mxPoint x="135" y="715" as="sourcePoint" />
            <mxPoint x="70" y="640" as="targetPoint" />
          </mxGeometry>
        </mxCell>
        <mxCell id="likq4GKeBWNw_tnaNfB7-27" value="" style="rounded=0;html=1;jettySize=auto;orthogonalLoop=1;fontSize=11;endArrow=block;endFill=0;endSize=8;strokeWidth=1;shadow=0;labelBackgroundColor=none;edgeStyle=orthogonalEdgeStyle;" parent="WIyWlLk6GJQsqaUBKTNV-1" edge="1">
          <mxGeometry relative="1" as="geometry">
            <mxPoint x="214.70999999999998" y="470" as="sourcePoint" />
            <mxPoint x="214.70999999999998" y="520" as="targetPoint" />
          </mxGeometry>
        </mxCell>
        <mxCell id="likq4GKeBWNw_tnaNfB7-36" value="Option 3" style="rounded=1;whiteSpace=wrap;html=1;fontSize=12;glass=0;strokeWidth=1;shadow=0;" parent="WIyWlLk6GJQsqaUBKTNV-1" vertex="1">
          <mxGeometry x="150" y="810" width="130" height="40" as="geometry" />
        </mxCell>
        <mxCell id="likq4GKeBWNw_tnaNfB7-37" value="Yes" style="rounded=0;html=1;jettySize=auto;orthogonalLoop=1;fontSize=11;endArrow=block;endFill=0;endSize=8;strokeWidth=1;shadow=0;labelBackgroundColor=none;edgeStyle=orthogonalEdgeStyle;" parent="WIyWlLk6GJQsqaUBKTNV-1" source="likq4GKeBWNw_tnaNfB7-39" target="likq4GKeBWNw_tnaNfB7-41" edge="1">
          <mxGeometry y="20" relative="1" as="geometry">
            <mxPoint as="offset" />
          </mxGeometry>
        </mxCell>
        <mxCell id="likq4GKeBWNw_tnaNfB7-38" value="No" style="edgeStyle=orthogonalEdgeStyle;rounded=0;html=1;jettySize=auto;orthogonalLoop=1;fontSize=11;endArrow=block;endFill=0;endSize=8;strokeWidth=1;shadow=0;labelBackgroundColor=none;" parent="WIyWlLk6GJQsqaUBKTNV-1" source="likq4GKeBWNw_tnaNfB7-39" target="likq4GKeBWNw_tnaNfB7-40" edge="1">
          <mxGeometry y="10" relative="1" as="geometry">
            <mxPoint as="offset" />
          </mxGeometry>
        </mxCell>
        <mxCell id="likq4GKeBWNw_tnaNfB7-39" value="&lt;font style=&quot;font-size: 11px;&quot;&gt;Withdrawal&lt;/font&gt;" style="rhombus;whiteSpace=wrap;html=1;shadow=0;fontFamily=Helvetica;fontSize=12;align=center;strokeWidth=1;spacing=6;spacingTop=-4;" parent="WIyWlLk6GJQsqaUBKTNV-1" vertex="1">
          <mxGeometry x="135" y="900" width="160" height="100" as="geometry" />
        </mxCell>
        <mxCell id="likq4GKeBWNw_tnaNfB7-40" value="insufficient balance, operation rejected, and inform the user" style="rounded=1;whiteSpace=wrap;html=1;fontSize=12;glass=0;strokeWidth=1;shadow=0;" parent="WIyWlLk6GJQsqaUBKTNV-1" vertex="1">
          <mxGeometry x="360" y="920" width="160" height="60" as="geometry" />
        </mxCell>
        <mxCell id="likq4GKeBWNw_tnaNfB7-41" value="balance exists and sufficient : Updates&amp;nbsp; by subtracting" style="rhombus;whiteSpace=wrap;html=1;shadow=0;fontFamily=Helvetica;fontSize=12;align=center;strokeWidth=1;spacing=6;spacingTop=-4;" parent="WIyWlLk6GJQsqaUBKTNV-1" vertex="1">
          <mxGeometry x="137.5" y="1040" width="155" height="170" as="geometry" />
        </mxCell>
        <mxCell id="likq4GKeBWNw_tnaNfB7-42" value="" style="rounded=0;html=1;jettySize=auto;orthogonalLoop=1;fontSize=11;endArrow=block;endFill=0;endSize=8;strokeWidth=1;shadow=0;labelBackgroundColor=none;edgeStyle=orthogonalEdgeStyle;exitX=0;exitY=0.5;exitDx=0;exitDy=0;entryX=0.004;entryY=0.461;entryDx=0;entryDy=0;entryPerimeter=0;" parent="WIyWlLk6GJQsqaUBKTNV-1" source="likq4GKeBWNw_tnaNfB7-41" target="likq4GKeBWNw_tnaNfB7-39" edge="1">
          <mxGeometry relative="1" as="geometry">
            <mxPoint x="135" y="1095" as="sourcePoint" />
            <mxPoint x="70" y="1020" as="targetPoint" />
          </mxGeometry>
        </mxCell>
        <mxCell id="likq4GKeBWNw_tnaNfB7-43" value="" style="rounded=0;html=1;jettySize=auto;orthogonalLoop=1;fontSize=11;endArrow=block;endFill=0;endSize=8;strokeWidth=1;shadow=0;labelBackgroundColor=none;edgeStyle=orthogonalEdgeStyle;" parent="WIyWlLk6GJQsqaUBKTNV-1" edge="1">
          <mxGeometry relative="1" as="geometry">
            <mxPoint x="214.70999999999998" y="850" as="sourcePoint" />
            <mxPoint x="214.70999999999998" y="900" as="targetPoint" />
          </mxGeometry>
        </mxCell>
        <mxCell id="likq4GKeBWNw_tnaNfB7-44" value="" style="rounded=0;html=1;jettySize=auto;orthogonalLoop=1;fontSize=11;endArrow=block;endFill=0;endSize=8;strokeWidth=1;shadow=0;labelBackgroundColor=none;edgeStyle=orthogonalEdgeStyle;" parent="WIyWlLk6GJQsqaUBKTNV-1" edge="1">
          <mxGeometry relative="1" as="geometry">
            <mxPoint x="215" y="770" as="sourcePoint" />
            <mxPoint x="214.70999999999998" y="810" as="targetPoint" />
          </mxGeometry>
        </mxCell>
        <mxCell id="likq4GKeBWNw_tnaNfB7-46" value="Banking System Algorithm Chart&lt;br&gt;&lt;font face=&quot;Lucida Console&quot;&gt;&lt;i&gt;Bek Brace Plus&lt;/i&gt;&lt;/font&gt;" style="text;strokeColor=none;align=center;fillColor=none;html=1;verticalAlign=middle;whiteSpace=wrap;rounded=0;" parent="WIyWlLk6GJQsqaUBKTNV-1" vertex="1">
          <mxGeometry x="690" width="137" height="130" as="geometry" />
        </mxCell>
        <mxCell id="likq4GKeBWNw_tnaNfB7-47" value="&lt;b&gt;&lt;u&gt;Option 4 Check Balance:&lt;/u&gt;&lt;/b&gt;&lt;br&gt;&lt;br&gt;&lt;br&gt;Prompts the user to input an account number.&lt;br&gt;&lt;br&gt;Checks if the provided account number exists in the database.&lt;br&gt;&lt;br&gt;If the account exists, it displays the account number, customer name, and current balance. &lt;br&gt;&lt;br&gt;If the account does not exist, it informs the user that the account number is invalid.&lt;br&gt;&lt;br&gt;&lt;br&gt;&lt;b&gt;&lt;u&gt;Option 5 Display Chart:&lt;/u&gt;&lt;/b&gt;&lt;br&gt;&lt;br&gt;&lt;br&gt;Retrieves data for all customers (account number, name, and balance) from the &quot;customers&quot; table.&lt;br&gt;&lt;br&gt;If data is available, it prints a table displaying account numbers, customer names, and balances.&lt;br&gt;&lt;br&gt;If no data is available, it informs the user that there is no data to display." style="text;whiteSpace=wrap;html=1;" parent="WIyWlLk6GJQsqaUBKTNV-1" vertex="1">
          <mxGeometry x="40" y="1230" width="560" height="120" as="geometry" />
        </mxCell>
        <mxCell id="likq4GKeBWNw_tnaNfB7-55" value="&lt;font style=&quot;font-size: 11px;&quot;&gt;balance&lt;/font&gt;" style="rhombus;whiteSpace=wrap;html=1;shadow=0;fontFamily=Helvetica;fontSize=12;align=center;strokeWidth=1;spacing=6;spacingTop=-4;" parent="WIyWlLk6GJQsqaUBKTNV-1" vertex="1">
          <mxGeometry x="570" y="1200" width="80" height="60" as="geometry" />
        </mxCell>
        <mxCell id="likq4GKeBWNw_tnaNfB7-56" value="" style="image;aspect=fixed;perimeter=ellipsePerimeter;html=1;align=center;shadow=0;dashed=0;spacingTop=3;image=img/lib/active_directory/database_partition_5.svg;" parent="WIyWlLk6GJQsqaUBKTNV-1" vertex="1">
          <mxGeometry x="720" y="1211.5" width="50" height="37" as="geometry" />
        </mxCell>
        <mxCell id="likq4GKeBWNw_tnaNfB7-57" value="Yes" style="edgeStyle=orthogonalEdgeStyle;rounded=0;html=1;jettySize=auto;orthogonalLoop=1;fontSize=11;endArrow=block;endFill=0;endSize=8;strokeWidth=1;shadow=0;labelBackgroundColor=none;entryX=0;entryY=0.5;entryDx=0;entryDy=0;" parent="WIyWlLk6GJQsqaUBKTNV-1" target="likq4GKeBWNw_tnaNfB7-56" edge="1">
          <mxGeometry x="-0.1524" y="10" relative="1" as="geometry">
            <mxPoint as="offset" />
            <mxPoint x="650" y="1230" as="sourcePoint" />
            <mxPoint x="715" y="1230" as="targetPoint" />
          </mxGeometry>
        </mxCell>
        <mxCell id="likq4GKeBWNw_tnaNfB7-58" value="Yes" style="rounded=0;html=1;jettySize=auto;orthogonalLoop=1;fontSize=11;endArrow=block;endFill=0;endSize=8;strokeWidth=1;shadow=0;labelBackgroundColor=none;edgeStyle=orthogonalEdgeStyle;" parent="WIyWlLk6GJQsqaUBKTNV-1" edge="1">
          <mxGeometry y="20" relative="1" as="geometry">
            <mxPoint as="offset" />
            <mxPoint x="744.71" y="1248.5" as="sourcePoint" />
            <mxPoint x="744.71" y="1288.5" as="targetPoint" />
          </mxGeometry>
        </mxCell>
        <mxCell id="likq4GKeBWNw_tnaNfB7-59" value="display account number" style="rounded=1;whiteSpace=wrap;html=1;fontSize=12;glass=0;strokeWidth=1;shadow=0;" parent="WIyWlLk6GJQsqaUBKTNV-1" vertex="1">
          <mxGeometry x="695" y="1290" width="100" height="30" as="geometry" />
        </mxCell>
        <mxCell id="likq4GKeBWNw_tnaNfB7-60" value="No" style="rounded=0;html=1;jettySize=auto;orthogonalLoop=1;fontSize=11;endArrow=block;endFill=0;endSize=8;strokeWidth=1;shadow=0;labelBackgroundColor=none;edgeStyle=orthogonalEdgeStyle;" parent="WIyWlLk6GJQsqaUBKTNV-1" edge="1">
          <mxGeometry y="20" relative="1" as="geometry">
            <mxPoint as="offset" />
            <mxPoint x="609.71" y="1260" as="sourcePoint" />
            <mxPoint x="609.71" y="1300" as="targetPoint" />
          </mxGeometry>
        </mxCell>
        <mxCell id="likq4GKeBWNw_tnaNfB7-61" value="error message" style="rounded=1;whiteSpace=wrap;html=1;fontSize=12;glass=0;strokeWidth=1;shadow=0;" parent="WIyWlLk6GJQsqaUBKTNV-1" vertex="1">
          <mxGeometry x="570" y="1300" width="80" height="20" as="geometry" />
        </mxCell>
        <mxCell id="likq4GKeBWNw_tnaNfB7-62" value="Customers" style="shape=table;startSize=30;container=1;collapsible=1;childLayout=tableLayout;fixedRows=1;rowLines=0;fontStyle=1;align=center;resizeLast=1;html=1;" parent="WIyWlLk6GJQsqaUBKTNV-1" vertex="1">
          <mxGeometry x="590" y="1460" width="180" height="150" as="geometry">
            <mxRectangle x="660" y="1440" width="100" height="30" as="alternateBounds" />
          </mxGeometry>
        </mxCell>
        <mxCell id="likq4GKeBWNw_tnaNfB7-63" value="" style="shape=tableRow;horizontal=0;startSize=0;swimlaneHead=0;swimlaneBody=0;fillColor=none;collapsible=0;dropTarget=0;points=[[0,0.5],[1,0.5]];portConstraint=eastwest;top=0;left=0;right=0;bottom=1;" parent="likq4GKeBWNw_tnaNfB7-62" vertex="1">
          <mxGeometry y="30" width="180" height="30" as="geometry" />
        </mxCell>
        <mxCell id="likq4GKeBWNw_tnaNfB7-64" value="PK" style="shape=partialRectangle;connectable=0;fillColor=none;top=0;left=0;bottom=0;right=0;fontStyle=1;overflow=hidden;whiteSpace=wrap;html=1;" parent="likq4GKeBWNw_tnaNfB7-63" vertex="1">
          <mxGeometry width="45" height="30" as="geometry">
            <mxRectangle width="45" height="30" as="alternateBounds" />
          </mxGeometry>
        </mxCell>
        <mxCell id="likq4GKeBWNw_tnaNfB7-65" value="name&amp;nbsp; &amp;nbsp; &amp;nbsp; &amp;nbsp; Balance&amp;nbsp; &amp;nbsp; &amp;nbsp;&amp;nbsp;" style="shape=partialRectangle;connectable=0;fillColor=none;top=0;left=0;bottom=0;right=0;align=left;spacingLeft=6;fontStyle=5;overflow=hidden;whiteSpace=wrap;html=1;" parent="likq4GKeBWNw_tnaNfB7-63" vertex="1">
          <mxGeometry x="45" width="135" height="30" as="geometry">
            <mxRectangle width="135" height="30" as="alternateBounds" />
          </mxGeometry>
        </mxCell>
        <mxCell id="likq4GKeBWNw_tnaNfB7-66" value="" style="shape=tableRow;horizontal=0;startSize=0;swimlaneHead=0;swimlaneBody=0;fillColor=none;collapsible=0;dropTarget=0;points=[[0,0.5],[1,0.5]];portConstraint=eastwest;top=0;left=0;right=0;bottom=0;" parent="likq4GKeBWNw_tnaNfB7-62" vertex="1">
          <mxGeometry y="60" width="180" height="30" as="geometry" />
        </mxCell>
        <mxCell id="likq4GKeBWNw_tnaNfB7-67" value="" style="shape=partialRectangle;connectable=0;fillColor=none;top=0;left=0;bottom=0;right=0;editable=1;overflow=hidden;whiteSpace=wrap;html=1;" parent="likq4GKeBWNw_tnaNfB7-66" vertex="1">
          <mxGeometry width="45" height="30" as="geometry">
            <mxRectangle width="45" height="30" as="alternateBounds" />
          </mxGeometry>
        </mxCell>
        <mxCell id="likq4GKeBWNw_tnaNfB7-68" value="John&amp;nbsp; &amp;nbsp; &amp;nbsp; &amp;nbsp; &amp;nbsp; &amp;nbsp; &amp;nbsp;10,000" style="shape=partialRectangle;connectable=0;fillColor=none;top=0;left=0;bottom=0;right=0;align=left;spacingLeft=6;overflow=hidden;whiteSpace=wrap;html=1;" parent="likq4GKeBWNw_tnaNfB7-66" vertex="1">
          <mxGeometry x="45" width="135" height="30" as="geometry">
            <mxRectangle width="135" height="30" as="alternateBounds" />
          </mxGeometry>
        </mxCell>
        <mxCell id="likq4GKeBWNw_tnaNfB7-69" value="" style="shape=tableRow;horizontal=0;startSize=0;swimlaneHead=0;swimlaneBody=0;fillColor=none;collapsible=0;dropTarget=0;points=[[0,0.5],[1,0.5]];portConstraint=eastwest;top=0;left=0;right=0;bottom=0;" parent="likq4GKeBWNw_tnaNfB7-62" vertex="1">
          <mxGeometry y="90" width="180" height="30" as="geometry" />
        </mxCell>
        <mxCell id="likq4GKeBWNw_tnaNfB7-70" value="" style="shape=partialRectangle;connectable=0;fillColor=none;top=0;left=0;bottom=0;right=0;editable=1;overflow=hidden;whiteSpace=wrap;html=1;" parent="likq4GKeBWNw_tnaNfB7-69" vertex="1">
          <mxGeometry width="45" height="30" as="geometry">
            <mxRectangle width="45" height="30" as="alternateBounds" />
          </mxGeometry>
        </mxCell>
        <mxCell id="likq4GKeBWNw_tnaNfB7-71" value="Bob&amp;nbsp; &amp;nbsp; &amp;nbsp; &amp;nbsp; &amp;nbsp; &amp;nbsp; &amp;nbsp; &amp;nbsp;20,000" style="shape=partialRectangle;connectable=0;fillColor=none;top=0;left=0;bottom=0;right=0;align=left;spacingLeft=6;overflow=hidden;whiteSpace=wrap;html=1;" parent="likq4GKeBWNw_tnaNfB7-69" vertex="1">
          <mxGeometry x="45" width="135" height="30" as="geometry">
            <mxRectangle width="135" height="30" as="alternateBounds" />
          </mxGeometry>
        </mxCell>
        <mxCell id="likq4GKeBWNw_tnaNfB7-72" value="" style="shape=tableRow;horizontal=0;startSize=0;swimlaneHead=0;swimlaneBody=0;fillColor=none;collapsible=0;dropTarget=0;points=[[0,0.5],[1,0.5]];portConstraint=eastwest;top=0;left=0;right=0;bottom=0;" parent="likq4GKeBWNw_tnaNfB7-62" vertex="1">
          <mxGeometry y="120" width="180" height="30" as="geometry" />
        </mxCell>
        <mxCell id="likq4GKeBWNw_tnaNfB7-73" value="" style="shape=partialRectangle;connectable=0;fillColor=none;top=0;left=0;bottom=0;right=0;editable=1;overflow=hidden;whiteSpace=wrap;html=1;" parent="likq4GKeBWNw_tnaNfB7-72" vertex="1">
          <mxGeometry width="45" height="30" as="geometry">
            <mxRectangle width="45" height="30" as="alternateBounds" />
          </mxGeometry>
        </mxCell>
        <mxCell id="likq4GKeBWNw_tnaNfB7-74" value="Linda&amp;nbsp; &amp;nbsp; &amp;nbsp; &amp;nbsp; &amp;nbsp; &amp;nbsp; &amp;nbsp;50,000" style="shape=partialRectangle;connectable=0;fillColor=none;top=0;left=0;bottom=0;right=0;align=left;spacingLeft=6;overflow=hidden;whiteSpace=wrap;html=1;" parent="likq4GKeBWNw_tnaNfB7-72" vertex="1">
          <mxGeometry x="45" width="135" height="30" as="geometry">
            <mxRectangle width="135" height="30" as="alternateBounds" />
          </mxGeometry>
        </mxCell>
        <mxCell id="likq4GKeBWNw_tnaNfB7-75" value="" style="image;html=1;image=img/lib/clip_art/computers/Database_Move_Stack_128x128.png" parent="WIyWlLk6GJQsqaUBKTNV-1" vertex="1">
          <mxGeometry x="560" y="1370" width="80" height="80" as="geometry" />
        </mxCell>
      </root>
    </mxGraphModel>
  </diagram>
</mxfile>
